<svg xmlns="http://www.w3.org/2000/svg" width="158" height="50" fill="none" viewBox="0 0 158 50" class="h-12 w-auto sm:h-16 group fill-current text-purple-900"><g clip-path="url(#clip0)"><path fill="#575F85" d="M59.898 15.807h3.358v2.25c.926-1.7 2.156-2.55 3.691-2.55 1.676 0 2.813.85 3.41 2.55.891-1.7 2.157-2.55 3.797-2.55 1.278 0 2.25.34 2.918 1.02.68.668 1.02 1.659 1.02 2.971V34h-3.375V22.03c0-1.372-.13-2.292-.387-2.76-.246-.48-.727-.721-1.441-.721-.809 0-1.36.246-1.653.738-.28.48-.422 1.395-.422 2.742V34h-3.48V22.03c0-.645-.035-1.19-.106-1.636-.058-.445-.163-.802-.316-1.072a1.355 1.355 0 00-.598-.58c-.246-.129-.55-.193-.914-.193-.773 0-1.324.264-1.652.79-.328.528-.492 1.425-.492 2.69V34h-3.358V15.807zm32.397 0V34h-3.358v-2.338c-.48.996-.96 1.682-1.44 2.057-.481.375-1.114.562-1.9.562-1.511 0-2.618-.773-3.322-2.32-.703-1.547-1.054-3.973-1.054-7.277 0-3.153.351-5.467 1.054-6.944.703-1.488 1.81-2.232 3.323-2.232 1.383 0 2.496.785 3.34 2.355v-2.056h3.357zM84.7 24.824c0 2.39.158 4.06.475 5.01.328.95.902 1.424 1.722 1.424.75 0 1.295-.492 1.635-1.477.34-1.054.51-2.677.51-4.869 0-2.203-.17-3.832-.51-4.887-.34-.984-.885-1.476-1.635-1.476-.796 0-1.365.469-1.705 1.406-.328.867-.492 2.49-.492 4.87zm11.408 16.63V15.806h3.358v2.355c.469-.996.949-1.687 1.441-2.074.492-.387 1.137-.58 1.934-.58 1.5 0 2.596.78 3.287 2.338.703 1.547 1.055 3.972 1.055 7.277 0 3.234-.358 5.56-1.073 6.979-.703 1.453-1.834 2.18-3.392 2.18-.75 0-1.365-.17-1.846-.51a3.317 3.317 0 01-.703-.704 8.274 8.274 0 01-.703-1.107v9.492h-3.358zM103.703 25c0-2.473-.164-4.148-.492-5.027-.316-.95-.885-1.424-1.705-1.424-.774 0-1.324.492-1.653 1.476-.328.915-.492 2.543-.492 4.887 0 2.344.164 3.973.492 4.887.34.973.891 1.459 1.653 1.459.797 0 1.365-.469 1.705-1.406.328-.868.492-2.485.492-4.852zm18 9h-3.375V9.092c0-.586-.211-1.084-.633-1.494a2.005 2.005 0 00-1.494-.633c-.586 0-1.09.21-1.512.633-.41.41-.615.908-.615 1.494v6.715h2.549v2.671h-2.549V34h-3.357V18.479h-1.688v-2.672h1.688V9.092c0-1.488.539-2.742 1.617-3.762 1.066-1.031 2.355-1.547 3.867-1.547s2.801.516 3.867 1.547c1.09 1.02 1.635 2.274 1.635 3.762V34zm14.537-8.947c0 6.152-1.904 9.228-5.713 9.228-3.808 0-5.713-3.123-5.713-9.369 0-6.27 1.899-9.404 5.696-9.404.984 0 1.834.187 2.549.562.726.375 1.324.955 1.793 1.74.468.786.814 1.776 1.037 2.971.234 1.196.351 2.62.351 4.272zm-3.48-.088c0-2.39-.158-4.055-.475-4.992-.316-.95-.879-1.424-1.687-1.424-.797 0-1.366.469-1.705 1.406-.317.938-.475 2.572-.475 4.904s.158 3.961.475 4.887c.339.938.908 1.406 1.705 1.406s1.353-.463 1.67-1.388c.328-.867.492-2.467.492-4.8zm4.746-9.158h3.551l1.019 5.853c.199 1.172.375 2.303.528 3.393.164 1.09.292 2.15.386 3.181l.053.633.07-.668c.094-.844.188-1.617.282-2.32.105-.715.216-1.371.334-1.969l.281-1.389 1.248-6.714h2.443l1.178 6.714.387 2.11c.082.398.158.896.228 1.494.07.586.141 1.283.211 2.092l.07.65c.211-2.18.51-4.295.897-6.346l1.248-6.714h3.305L150.953 34h-2.32l-1.389-6.943a43.897 43.897 0 01-.422-2.584 58.808 58.808 0 01-.334-3.252 16.729 16.729 0 00-.052-.58 51.429 51.429 0 01-.299 3.111 52.397 52.397 0 01-.475 2.988L144.256 34h-2.32l-4.43-18.193z"></path><path fill="#575F85" class="group-hover:text-purple-800" fill-rule="evenodd" d="M47.313 36.287a24.83 24.83 0 001.884-4.979c-.66 1.11-1.386 2.182-2.416 2.695-1.106.55-2.203-.085-3.073-.98-1.254-1.289-2.234-3.094-3.121-4.8a79.3 79.3 0 01-1.427-2.933c-.383-.816-.766-1.631-1.168-2.43-.797-1.581-1.815-3.194-3.145-4.05-1.102-.709-2.236-.367-3.206.517-.96.875-1.725 2.12-2.398 3.35-.662 1.212-1.241 2.496-1.798 3.79-.381.886-.746 1.786-1.111 2.686-.672 1.654-1.343 3.309-2.116 4.887-.69 1.408-1.715 3.494-3.17 3.555-.67.026-1.26-.497-1.714-1.085-.821-1.064-1.367-2.468-1.873-3.8-.585-1.542-1.077-3.14-1.568-4.738-.734-2.382-1.468-4.764-2.508-6.956-.733-1.545-1.864-3.577-3.457-3.39-.604.07-1.165.48-1.652.919-.636.572-1.198 1.277-1.742 1.986a84.242 84.242 0 00-1.252 1.684c-.214.293-.428.586-.644.877-.475.64-.97 1.254-1.465 1.868-.247.307-.495.615-.741.927-.775.98-1.456 2.066-2.101 3.191.101.617.225 1.226.37 1.826.109-.178.219-.355.33-.53.564-.89 1.197-1.677 1.833-2.467.228-.285.457-.57.683-.86.475-.609.935-1.241 1.394-1.874.77-1.06 1.54-2.12 2.386-3.074.924-1.04 2.093-2.079 3.379-1.71.67.19 1.243.76 1.712 1.38.75.993 1.316 2.218 1.818 3.434.767 1.851 1.367 3.8 1.967 5.747.647 2.098 1.293 4.195 2.147 6.17.64 1.482 1.86 3.948 3.422 2.91.648-.431 1.145-1.218 1.57-1.961.588-1.029 1.083-2.145 1.56-3.26.38-.887.747-1.784 1.113-2.68.714-1.746 1.429-3.493 2.24-5.17.566-1.171 1.187-2.311 1.907-3.337.782-1.114 1.759-2.213 2.944-2.469 1.198-.258 2.289.544 3.164 1.53 1.13 1.275 1.94 2.9 2.715 4.538l.291.615c.797 1.69 1.595 3.38 2.518 4.965.859 1.471 1.888 3.223 3.266 3.903.804.396 1.58.142 2.253-.417zm.515-3.629c.62-.706 1.138-1.587 1.633-2.468.223-1.06.38-2.146.465-3.25l-.233.398-.185.316c-.748 1.283-1.533 2.63-2.727 3.224-1.106.55-2.203-.085-3.073-.98-1.254-1.288-2.234-3.094-3.121-4.8-.5-.958-.963-1.946-1.427-2.934-.383-.815-.766-1.63-1.168-2.429-.797-1.581-1.815-3.194-3.145-4.05-1.102-.709-2.236-.367-3.206.517-.96.875-1.725 2.12-2.398 3.35-.662 1.212-1.241 2.496-1.798 3.79-.381.886-.746 1.786-1.111 2.686-.672 1.654-1.343 3.309-2.116 4.887-.69 1.408-1.715 3.494-3.17 3.555-.67.026-1.26-.497-1.714-1.085-.821-1.064-1.367-2.468-1.873-3.8-.585-1.542-1.077-3.14-1.568-4.738-.734-2.382-1.468-4.764-2.508-6.956-.733-1.545-1.864-3.577-3.457-3.39-.604.07-1.165.48-1.652.919-.636.572-1.198 1.277-1.742 1.986a84.242 84.242 0 00-1.252 1.684c-.214.293-.428.586-.644.877-.475.64-.97 1.254-1.465 1.868-.247.307-.495.615-.741.927-.891 1.127-1.659 2.395-2.39 3.701.04.7.11 1.393.207 2.077.254-.437.514-.868.782-1.291.564-.89 1.197-1.677 1.833-2.467.228-.285.457-.57.683-.86.475-.609.935-1.241 1.394-1.874.77-1.06 1.54-2.12 2.386-3.074.924-1.04 2.093-2.079 3.379-1.71.67.19 1.243.76 1.712 1.38.75.993 1.316 2.218 1.818 3.434.767 1.851 1.367 3.8 1.967 5.747.647 2.098 1.293 4.195 2.147 6.17.64 1.482 1.86 3.948 3.422 2.91.648-.431 1.145-1.218 1.57-1.961.588-1.029 1.083-2.145 1.56-3.26.38-.887.747-1.784 1.113-2.68.714-1.746 1.429-3.493 2.24-5.17.566-1.171 1.187-2.311 1.907-3.337.782-1.114 1.759-2.213 2.944-2.469 1.198-.258 2.289.544 3.164 1.53 1.13 1.275 1.94 2.9 2.715 4.538l.291.615c.797 1.69 1.595 3.38 2.518 4.965.859 1.471 1.888 3.223 3.266 3.903 1.018.502 1.99-.039 2.768-.921zM.013 25.823c.33-.576.666-1.145 1.018-1.7.564-.888 1.197-1.676 1.833-2.466.228-.285.457-.57.683-.86.475-.609.935-1.241 1.394-1.874.77-1.06 1.54-2.12 2.386-3.074.924-1.04 2.093-2.079 3.379-1.71.67.19 1.243.76 1.712 1.38.75.993 1.316 2.218 1.818 3.434.767 1.852 1.367 3.8 1.967 5.747.647 2.098 1.293 4.195 2.147 6.17.64 1.482 1.86 3.948 3.422 2.91.648-.431 1.145-1.218 1.57-1.961.588-1.029 1.083-2.145 1.56-3.26.38-.887.747-1.784 1.113-2.68.714-1.746 1.429-3.493 2.24-5.17.566-1.171 1.187-2.311 1.907-3.337.782-1.114 1.759-2.213 2.944-2.469 1.198-.258 2.289.544 3.164 1.53 1.13 1.275 1.94 2.9 2.715 4.538l.291.615c.797 1.69 1.595 3.38 2.518 4.965.859 1.471 1.888 3.223 3.266 3.903 1.018.502 1.99-.039 2.768-.921.705-.802 1.278-1.831 1.835-2.83V26.7l.311-.554a25.514 25.514 0 00-.005-2.407c-.092.158-.183.316-.276.473l-.185.316c-.748 1.283-1.533 2.63-2.727 3.224-1.106.55-2.203-.085-3.073-.98-1.254-1.288-2.234-3.094-3.121-4.8-.5-.958-.963-1.946-1.427-2.934-.383-.815-.766-1.63-1.168-2.429-.797-1.581-1.815-3.194-3.145-4.05-1.102-.709-2.236-.367-3.206.517-.96.875-1.725 2.12-2.398 3.35-.662 1.212-1.241 2.496-1.798 3.79-.381.886-.746 1.786-1.111 2.686-.672 1.654-1.343 3.309-2.116 4.887-.69 1.408-1.715 3.494-3.17 3.555-.67.027-1.26-.497-1.714-1.085-.821-1.065-1.367-2.468-1.873-3.8-.585-1.542-1.077-3.14-1.568-4.738-.734-2.382-1.468-4.764-2.508-6.956-.733-1.545-1.864-3.577-3.457-3.39-.604.07-1.165.48-1.652.919-.636.572-1.198 1.277-1.742 1.986-.425.552-.838 1.118-1.252 1.683-.214.294-.428.587-.644.878-.475.64-.97 1.254-1.465 1.868-.247.307-.495.615-.741.927-.885 1.12-1.65 2.379-2.376 3.677a25.372 25.372 0 00-.043 2.51zm49.682-4.739c.105.664.183 1.337.234 2.018-.089.157-.177.316-.266.476-.557.999-1.13 2.028-1.835 2.83-.779.882-1.75 1.423-2.768.921-1.378-.68-2.407-2.432-3.266-3.904-.923-1.583-1.72-3.274-2.518-4.964l-.29-.615c-.777-1.638-1.587-3.263-2.715-4.537-.876-.987-1.967-1.789-3.165-1.53-1.185.255-2.162 1.354-2.944 2.468-.72 1.026-1.34 2.166-1.907 3.338-.811 1.676-1.526 3.423-2.24 5.17-.366.895-.733 1.792-1.112 2.678-.478 1.116-.973 2.232-1.56 3.26-.426.744-.923 1.53-1.571 1.962-1.562 1.038-2.783-1.428-3.422-2.91-.854-1.975-1.5-4.072-2.147-6.17-.6-1.947-1.2-3.895-1.967-5.747-.502-1.216-1.069-2.441-1.818-3.433-.47-.622-1.043-1.192-1.712-1.382-1.286-.368-2.455.67-3.379 1.71-.846.954-1.616 2.015-2.386 3.075-.46.633-.919 1.265-1.394 1.875-.226.29-.455.574-.683.859-.636.79-1.269 1.578-1.833 2.467-.313.493-.614.998-.908 1.509.116-1.178.315-2.333.59-3.457a23.605 23.605 0 011.719-2.54c.246-.31.494-.619.741-.926.495-.614.99-1.227 1.465-1.868.216-.291.43-.584.644-.877.414-.566.827-1.132 1.252-1.684.544-.71 1.106-1.414 1.742-1.986.487-.439 1.048-.848 1.652-.919 1.593-.187 2.724 1.845 3.457 3.39 1.04 2.192 1.774 4.574 2.508 6.957.491 1.597.983 3.195 1.568 4.736.506 1.333 1.052 2.736 1.873 3.801.454.588 1.044 1.111 1.714 1.085 1.455-.061 2.48-2.147 3.17-3.555.773-1.579 1.444-3.233 2.116-4.887.365-.9.73-1.8 1.111-2.686.557-1.294 1.136-2.578 1.798-3.79.673-1.23 1.438-2.475 2.398-3.35.97-.884 2.104-1.226 3.206-.517 1.33.856 2.348 2.469 3.145 4.05.402.799.785 1.614 1.168 2.43a79.39 79.39 0 001.427 2.933c.886 1.706 1.867 3.512 3.121 4.8.87.895 1.967 1.53 3.073.98 1.194-.594 1.979-1.94 2.727-3.224l.185-.316.002-.004zm-.089-.53c-.539.967-1.097 1.954-1.778 2.729-.779.882-1.75 1.423-2.768.921-1.378-.68-2.407-2.432-3.266-3.904-.923-1.584-1.72-3.274-2.518-4.964l-.29-.615c-.777-1.638-1.587-3.263-2.715-4.537-.876-.987-1.967-1.789-3.165-1.53-1.185.255-2.162 1.354-2.944 2.468-.72 1.026-1.34 2.166-1.907 3.338-.811 1.676-1.526 3.423-2.24 5.17-.366.895-.733 1.792-1.112 2.678-.478 1.116-.973 2.232-1.56 3.26-.426.744-.923 1.53-1.571 1.962-1.562 1.038-2.783-1.428-3.422-2.91-.854-1.975-1.5-4.072-2.147-6.17-.6-1.947-1.2-3.895-1.967-5.747-.502-1.216-1.069-2.441-1.818-3.433-.47-.622-1.043-1.192-1.712-1.382-1.286-.368-2.455.67-3.379 1.71-.846.954-1.616 2.015-2.386 3.075-.46.633-.919 1.265-1.394 1.875-.226.29-.455.574-.683.859-.636.79-1.269 1.578-1.833 2.467l-.001.002C4.097 7.539 13.668 0 25 0c12.29 0 22.509 8.868 24.606 20.555zm-2.705 16.511l-.12.063c-1.106.55-2.203-.085-3.073-.98-1.254-1.289-2.234-3.094-3.121-4.8-.5-.958-.963-1.946-1.427-2.933-.383-.816-.766-1.631-1.168-2.43-.797-1.581-1.815-3.194-3.145-4.05-1.102-.709-2.236-.367-3.206.517-.96.875-1.725 2.12-2.398 3.35-.662 1.212-1.241 2.496-1.798 3.79-.381.886-.746 1.786-1.111 2.686-.672 1.654-1.343 3.308-2.116 4.887-.69 1.408-1.715 3.494-3.17 3.555-.67.026-1.26-.497-1.714-1.085-.821-1.064-1.367-2.468-1.873-3.8-.585-1.542-1.077-3.14-1.568-4.738-.734-2.382-1.468-4.764-2.508-6.956-.733-1.545-1.864-3.577-3.457-3.39-.604.07-1.165.48-1.652.919-.636.572-1.198 1.277-1.742 1.986a84.242 84.242 0 00-1.252 1.684c-.214.293-.428.586-.644.877-.475.64-.97 1.254-1.465 1.868-.247.307-.495.615-.741.927a23.01 23.01 0 00-1.613 2.36C3.637 42.092 13.395 50 25 50c9.432 0 17.644-5.223 21.901-12.935z" clip-rule="evenodd"></path></g><defs><clipPath id="clip0"><path fill="#fff" d="M0 0H158V50H0z"></path></clipPath></defs></svg>